<svg width="26" height="18" viewBox="0 0 26 18" fill="none" xmlns="http://www.w3.org/2000/svg">
<path fill-rule="evenodd" clip-rule="evenodd" d="M0.768662 1.05691L0.922395 0.883962C1.48582 0.294783 2.3252 0 3.43976 0H22.541C23.5914 0 24.3985 0.256349 24.9623 0.768663L24.9815 0.78788C25.0968 0.890496 25.2125 1.01194 25.3274 1.15299C25.3274 1.16606 25.334 1.17874 25.3466 1.19143L25.3659 1.21064C25.789 1.73602 26 2.47894 26 3.43976V14.3163C25.9873 16.6223 24.8343 17.7753 22.541 17.7753H3.43976C1.14646 17.7626 0 16.6096 0 14.3163V3.43976C0 2.40207 0.256349 1.60766 0.768662 1.05691ZM23.1752 1.88322C22.983 1.83211 22.7716 1.81251 22.5414 1.82557H3.43976C3.29871 1.81289 3.1642 1.81904 3.03622 1.84479L12.9327 11.8758L23.1752 1.88322ZM1.82557 3.22838C1.81289 3.29257 1.81289 3.3629 1.82557 3.43976V14.3163C1.82557 15.4055 2.36364 15.9497 3.43976 15.9497H22.541C23.6298 15.9497 24.1744 15.4055 24.1744 14.3163V3.45898L13.5669 13.8167C13.3747 13.9962 13.1572 14.0857 12.9139 14.0857C12.6576 14.0731 12.4396 13.9831 12.2605 13.8167L1.82557 3.22838Z" fill="black"/>
<path fill-rule="evenodd" clip-rule="evenodd" d="M0.769043 1.05658C0.794793 1.01815 0.826692 0.979719 0.865124 0.941286C0.878192 0.915536 0.897023 0.896319 0.922773 0.883636L0.769043 1.05658Z" fill="black"/>
</svg>
