<svg width="26" height="26" viewBox="0 0 26 26" fill="none" xmlns="http://www.w3.org/2000/svg">
<g clip-path="url(#clip0_2_376)">
<path d="M13.9241 6.95486C15.1962 7.17321 16.3591 7.77497 17.2858 8.69919C18.2075 9.62087 18.8118 10.7838 19.0302 12.0584C19.1139 12.5611 19.5456 12.9242 20.0559 12.9242C20.1219 12.9242 20.1803 12.9166 20.221 12.909C20.2235 12.909 20.2261 12.909 20.2286 12.9064C20.5053 12.8607 20.7466 12.7109 20.9065 12.4799C21.0665 12.2513 21.1274 11.9771 21.0792 11.7054C20.7897 10.0043 19.9874 8.45544 18.7559 7.224C17.5194 5.99255 15.968 5.19021 14.2694 4.90329H14.2669C13.7007 4.80935 13.1649 5.19275 13.071 5.75642C12.9821 6.32517 13.363 6.86091 13.9241 6.95486Z" fill="black"/>
<path d="M20.3251 15.6711C19.7564 15.0795 19.0683 14.7672 18.3345 14.7672C17.6083 14.7672 16.9152 15.0744 16.3337 15.6584L14.889 17.1031C14.8534 17.0854 14.8179 17.0676 14.7849 17.0498L14.7112 17.0143C14.5564 16.9355 14.3786 16.8467 14.2314 16.7553C12.7485 15.8133 11.3952 14.5793 10.0902 12.9797C9.53156 12.2764 9.14054 11.6797 8.85363 11.0855C9.21671 10.7428 9.55441 10.4 9.87179 10.075C9.94289 10.0039 10.014 9.93027 10.0876 9.85664C10.1587 9.78301 10.2323 9.70937 10.306 9.63574C10.9103 9.03145 11.2302 8.33066 11.2277 7.60957C11.2277 6.89102 10.9077 6.19277 10.306 5.59355L8.90187 4.18945C8.82062 4.1082 8.73937 4.02695 8.66066 3.9457C8.58195 3.86445 8.5007 3.7832 8.42199 3.70449L8.31027 3.59023C8.03351 3.3084 7.7466 3.01641 7.45714 2.7498C6.89347 2.18867 6.21046 1.8916 5.48683 1.8916C4.76574 1.8916 4.07765 2.18867 3.49113 2.7498C3.48859 2.75234 3.48605 2.75234 3.48605 2.75488L1.72648 4.51191C1.00792 5.23047 0.599136 6.10645 0.510269 7.11445V7.11699C0.416323 8.31035 0.632144 9.56973 1.19074 11.0805C2.03625 13.3656 3.30578 15.4832 5.18214 17.743C7.47238 20.4725 10.2222 22.6256 13.3528 24.1414H13.3554C14.5614 24.7178 16.1814 25.3932 18.0095 25.5125C18.012 25.5125 18.0146 25.5125 18.0171 25.5125H18.0298C18.1339 25.5176 18.2431 25.5227 18.3573 25.5227C19.6396 25.5227 20.7212 25.058 21.5693 24.1414L21.5819 24.1287C21.5921 24.1186 21.5997 24.1109 21.6073 24.1008C21.8612 23.7961 22.1532 23.5143 22.4808 23.1994C22.7068 22.9836 22.9378 22.7627 23.1612 22.524C23.7376 21.9223 24.0423 21.2215 24.0398 20.4979C24.0372 19.7717 23.7275 19.0785 23.1435 18.4945L20.3251 15.6711ZM20.0458 22.7475C19.5939 23.2299 19.0759 23.4457 18.37 23.4457C18.304 23.4457 18.2304 23.4406 18.1542 23.4355C16.6917 23.3416 15.3079 22.7627 14.2669 22.2676C11.3927 20.8838 8.87394 18.9135 6.77921 16.41C5.06535 14.3457 3.91007 12.4211 3.14582 10.3594C2.68878 9.13301 2.51613 8.1834 2.58722 7.28711C2.63293 6.76406 2.82843 6.34766 3.20167 5.97949L4.94855 4.23262C5.13136 4.05742 5.31925 3.96348 5.49445 3.96348C5.65949 3.96348 5.83468 4.05488 6.02003 4.23516C6.02257 4.2377 6.02511 4.24023 6.02765 4.24277C6.3298 4.52715 6.62433 4.82676 6.93664 5.1416L6.94679 5.15176C7.0966 5.30664 7.26925 5.48437 7.44445 5.65449L8.84601 7.05605C9.2548 7.46484 9.2548 7.75176 8.84601 8.16055C8.69874 8.30781 8.54894 8.45762 8.40167 8.60996L8.29757 8.7166C7.90402 9.11523 7.53332 9.49101 7.1296 9.84902C7.12453 9.8541 7.11691 9.85918 7.11183 9.8668L7.08644 9.89219C6.65734 10.3213 6.54054 10.8342 6.74113 11.4131C6.74621 11.4283 6.75128 11.441 6.75636 11.4537C6.7589 11.4613 6.76144 11.4689 6.76652 11.4766C7.1423 12.383 7.67042 13.2437 8.48292 14.2721C8.48292 14.2746 8.48546 14.2746 8.48546 14.2771C9.92765 16.052 11.4486 17.4383 13.137 18.5098C13.3579 18.6494 13.5864 18.7662 13.7997 18.8729C13.9571 18.9516 14.1349 19.043 14.2821 19.1318C14.2923 19.1395 14.3025 19.1445 14.3126 19.1496L14.3202 19.1547C14.3355 19.1623 14.3507 19.1725 14.3685 19.1801C14.5894 19.2918 14.8077 19.3451 15.0337 19.3451C15.4196 19.3451 15.7751 19.1852 16.062 18.883L17.8191 17.126C17.946 16.999 18.1441 16.8467 18.3523 16.8467C18.5452 16.8467 18.7331 16.9965 18.855 17.1234C18.8575 17.126 18.8575 17.126 18.8601 17.1285L21.6962 19.9646C21.9755 20.2439 22.1659 20.574 21.6734 21.092L21.6708 21.0945C21.5159 21.2621 21.3509 21.4221 21.1757 21.5922C21.1376 21.6277 21.0995 21.6658 21.0614 21.7039C20.706 22.0365 20.3657 22.3666 20.0458 22.7475Z" fill="black"/>
<path d="M25.4948 11.5022C25.0276 8.75241 23.7276 6.24382 21.7345 4.25065C19.7337 2.25495 17.2251 0.954948 14.4728 0.490299C13.9065 0.396354 13.3708 0.779752 13.2769 1.34342C13.1829 1.90964 13.5663 2.44538 14.1274 2.53932C16.4558 2.93542 18.5759 4.03737 20.2618 5.72077C21.9478 7.40671 23.0472 9.52682 23.4433 11.8526C23.5271 12.3553 23.9587 12.7184 24.4691 12.7184C24.4716 12.7184 24.4741 12.7184 24.4767 12.7184C24.5401 12.7184 24.5935 12.7108 24.6341 12.7032C24.6366 12.7032 24.6392 12.7032 24.6417 12.7007C24.9185 12.655 25.1597 12.5051 25.3196 12.2741C25.4821 12.0481 25.5431 11.7739 25.4948 11.5022Z" fill="black"/>
</g>
<defs>
<clipPath id="clip0_2_376">
<rect width="26" height="26" fill="white"/>
</clipPath>
</defs>
</svg>
